<svg xmlns="http://www.w3.org/2000/svg" viewBox="0 0 933.86 231"><defs><style>.cls-1{fill:#edebef;}</style></defs><g id="black"><g id="wordmark"><path class="cls-1" d="M349,95.27c0-17.52-10.21-27.12-26-27.12s-26,9.6-26,27.12V168H257V95.27c0-17.52-10.21-27.12-26-27.12s-26,9.6-26,27.12V168H163V35h42V51.69C213,41,226.68,33.57,244.26,33.57c20.24,0,36.62,8.82,45.77,24.79a54.22,54.22,0,0,1,45.29-24.79c33.24,0,54.68,21,54.68,56.73V168H349Z"/><path class="cls-1" d="M472.15,171.51c-36.28,0-60.64-20.21-62.58-46.51h41.15c1,9.5,9.5,15.83,20.94,15.83,10.72,0,16.32-4.87,16.32-11,0-21.92-74-6.09-74-56,0-23.13,19.72-42.13,55.28-42.13,35.07,0,54.55,19.48,57.23,46.27H488c-1.22-9.25-8.28-15.34-20-15.34-9.74,0-15.1,3.89-15.1,10.47,0,21.67,73.55,6.33,74.28,57C527.19,153.74,506.24,171.51,472.15,171.51Z"/><path class="cls-1" d="M611.08,170.07c-39.37,0-67.69-26.4-67.69-68.89s27.84-68.89,67.69-68.89c39.12,0,66.73,25.92,66.73,66.73,0,3.84-.24,7.92-.72,13h-92.9c1.44,16.54,12.25,24.71,25.45,24.71,11.52,0,18-5.77,21.36-11.71h43.69C668.21,149.91,644.44,170.07,611.08,170.07ZM584.44,88H635.8c0-14.64-11.52-23-25.2-23C597.16,65,586.84,73.12,584.44,88Z"/><path class="cls-1" d="M707,68H690V34h17V1h41V34h27V68H748v53.73c0,7.91,3.34,11.27,12.43,11.27H775v35H754.17C726.4,168,707,156.22,707,121.37Z"/><path class="cls-1" d="M889.35,33h44.51l-84.2,198H805.39l30.79-68.33L781.57,33h45.95l31,84Z"/><polygon class="cls-1" points="135 43 135 0 0 0 0 43 47 43 47 125 0 125 0 168 135 168 135 125 88 125 88 43 135 43"/></g></g></svg>