<svg xmlns="http://www.w3.org/2000/svg" width="1008" height="1080" viewBox="0 0 1008 1080"><polygon points="144 504 72 504 72 432 144 504" fill="#131214"/><polygon points="0 576 0 504 72 504 0 576" fill="#131214"/><polygon points="144 576 72 576 72 504 144 576" fill="#131214"/><polygon points="0 720 0 648 72 648 0 720" fill="#131214"/><polygon points="144 720 72 720 72 648 144 720" fill="#131214"/><polygon points="0 792 0 720 72 720 0 792" fill="#131214"/><polygon points="144 792 72 792 72 720 144 792" fill="#131214"/><polygon points="144 864 72 864 72 792 144 864" fill="#131214"/><polygon points="0 360 0 288 72 288 0 360" fill="#131214"/><polygon points="144 360 72 360 72 288 144 360" fill="#131214"/><polygon points="144 216 72 216 72 144 144 216" fill="#131214"/><polygon points="0 288 0 216 72 216 0 288" fill="#131214"/><polygon points="144 288 72 288 72 216 144 288" fill="#131214"/><polygon points="0 72 0 0 72 0 0 72" fill="#131214"/><polygon points="144 72 72 72 72 0 144 72" fill="#131214"/><polygon points="0 144 0 72 72 72 0 144" fill="#131214"/><polygon points="144 144 72 144 72 72 144 144" fill="#131214"/><polygon points="144 576 144 504 216 504 144 576" fill="#131214"/><polygon points="288 576 216 576 216 504 288 576" fill="#131214"/><polygon points="144 720 144 648 216 648 144 720" fill="#131214"/><polygon points="288 720 216 720 216 648 288 720" fill="#131214"/><polygon points="144 792 144 720 216 720 144 792" fill="#131214"/><polygon points="288 792 216 792 216 720 288 792" fill="#131214"/><polygon points="144 864 144 792 216 792 144 864" fill="#131214"/><polygon points="288 864 216 864 216 792 288 864" fill="#131214"/><polygon points="144 936 144 864 216 864 144 936" fill="#131214"/><polygon points="288 936 216 936 216 864 288 936" fill="#131214"/><polygon points="288 1008 216 1008 216 936 288 1008" fill="#131214"/><polygon points="288 432 216 432 216 360 288 432" fill="#131214"/><polygon points="144 504 144 432 216 432 144 504" fill="#131214"/><polygon points="288 504 216 504 216 432 288 504" fill="#131214"/><polygon points="144 288 144 216 216 216 144 288" fill="#131214"/><polygon points="288 288 216 288 216 216 288 288" fill="#131214"/><polygon points="144 360 144 288 216 288 144 360" fill="#131214"/><polygon points="288 360 216 360 216 288 288 360" fill="#131214"/><polygon points="144 144 144 72 216 72 144 144" fill="#131214"/><polygon points="288 144 216 144 216 72 288 144" fill="#131214"/><polygon points="144 216 144 144 216 144 144 216" fill="#131214"/><polygon points="288 216 216 216 216 144 288 216" fill="#131214"/><polygon points="288 504 288 432 360 432 288 504" fill="#131214"/><polygon points="432 504 360 504 360 432 432 504" fill="#131214"/><polygon points="288 576 288 504 360 504 288 576" fill="#131214"/><polygon points="432 576 360 576 360 504 432 576" fill="#131214"/><polygon points="288 648 288 576 360 576 288 648" fill="#131214"/><polygon points="432 648 360 648 360 576 432 648" fill="#131214"/><polygon points="288 720 288 648 360 648 288 720" fill="#131214"/><polygon points="432 720 360 720 360 648 432 720" fill="#131214"/><polygon points="288 792 288 720 360 720 288 792" fill="#131214"/><polygon points="432 792 360 792 360 720 432 792" fill="#131214"/><polygon points="288 864 288 792 360 792 288 864" fill="#131214"/><polygon points="432 864 360 864 360 792 432 864" fill="#131214"/><polygon points="288 936 288 864 360 864 288 936" fill="#131214"/><polygon points="432 936 360 936 360 864 432 936" fill="#131214"/><polygon points="288 1008 288 936 360 936 288 1008" fill="#131214"/><polygon points="432 1008 360 1008 360 936 432 1008" fill="#131214"/><polygon points="288 1080 288 1008 360 1008 288 1080" fill="#131214"/><polygon points="432 1080 360 1080 360 1008 432 1080" fill="#131214"/><polygon points="288 360 288 288 360 288 288 360" fill="#131214"/><polygon points="432 360 360 360 360 288 432 360" fill="#131214"/><polygon points="288 432 288 360 360 360 288 432" fill="#131214"/><polygon points="432 432 360 432 360 360 432 432" fill="#131214"/><polygon points="288 216 288 144 360 144 288 216" fill="#131214"/><polygon points="432 216 360 216 360 144 432 216" fill="#131214"/><polygon points="288 288 288 216 360 216 288 288" fill="#131214"/><polygon points="432 288 360 288 360 216 432 288" fill="#131214"/><polygon points="288 72 288 0 360 0 288 72" fill="#131214"/><polygon points="432 72 360 72 360 0 432 72" fill="#131214"/><polygon points="288 144 288 72 360 72 288 144" fill="#131214"/><polygon points="432 144 360 144 360 72 432 144" fill="#131214"/><polygon points="432 576 432 504 504 504 432 576" fill="#131214"/><polygon points="576 576 504 576 504 504 576 576" fill="#131214"/><polygon points="432 648 432 576 504 576 432 648" fill="#131214"/><polygon points="576 648 504 648 504 576 576 648" fill="#131214"/><polygon points="432 720 432 648 504 648 432 720" fill="#131214"/><polygon points="576 720 504 720 504 648 576 720" fill="#131214"/><polygon points="432 792 432 720 504 720 432 792" fill="#131214"/><polygon points="576 792 504 792 504 720 576 792" fill="#131214"/><polygon points="432 864 432 792 504 792 432 864" fill="#131214"/><polygon points="576 864 504 864 504 792 576 864" fill="#131214"/><polygon points="432 936 432 864 504 864 432 936" fill="#131214"/><polygon points="576 936 504 936 504 864 576 936" fill="#131214"/><polygon points="432 1008 432 936 504 936 432 1008" fill="#131214"/><polygon points="576 1008 504 1008 504 936 576 1008" fill="#131214"/><polygon points="432 1080 432 1008 504 1008 432 1080" fill="#131214"/><polygon points="576 1080 504 1080 504 1008 576 1080" fill="#131214"/><polygon points="432 432 432 360 504 360 432 432" fill="#131214"/><polygon points="576 432 504 432 504 360 576 432" fill="#131214"/><polygon points="432 504 432 432 504 432 432 504" fill="#131214"/><polygon points="576 504 504 504 504 432 576 504" fill="#131214"/><polygon points="432 288 432 216 504 216 432 288" fill="#131214"/><polygon points="576 288 504 288 504 216 576 288" fill="#131214"/><polygon points="432 360 432 288 504 288 432 360" fill="#131214"/><polygon points="576 360 504 360 504 288 576 360" fill="#131214"/><polygon points="432 144 432 72 504 72 432 144" fill="#131214"/><polygon points="576 144 504 144 504 72 576 144" fill="#131214"/><polygon points="432 216 432 144 504 144 432 216" fill="#131214"/><polygon points="576 216 504 216 504 144 576 216" fill="#131214"/><polygon points="576 504 576 432 648 432 576 504" fill="#131214"/><polygon points="720 504 648 504 648 432 720 504" fill="#131214"/><polygon points="576 576 576 504 648 504 576 576" fill="#131214"/><polygon points="720 576 648 576 648 504 720 576" fill="#131214"/><polygon points="576 648 576 576 648 576 576 648" fill="#131214"/><polygon points="720 648 648 648 648 576 720 648" fill="#131214"/><polygon points="576 720 576 648 648 648 576 720" fill="#131214"/><polygon points="720 720 648 720 648 648 720 720" fill="#131214"/><polygon points="576 792 576 720 648 720 576 792" fill="#131214"/><polygon points="720 792 648 792 648 720 720 792" fill="#131214"/><polygon points="576 864 576 792 648 792 576 864" fill="#131214"/><polygon points="720 864 648 864 648 792 720 864" fill="#131214"/><polygon points="576 936 576 864 648 864 576 936" fill="#131214"/><polygon points="720 936 648 936 648 864 720 936" fill="#131214"/><polygon points="576 1008 576 936 648 936 576 1008" fill="#131214"/><polygon points="720 1008 648 1008 648 936 720 1008" fill="#131214"/><polygon points="576 1080 576 1008 648 1008 576 1080" fill="#131214"/><polygon points="720 1080 648 1080 648 1008 720 1080" fill="#131214"/><polygon points="576 360 576 288 648 288 576 360" fill="#131214"/><polygon points="720 360 648 360 648 288 720 360" fill="#131214"/><polygon points="576 432 576 360 648 360 576 432" fill="#131214"/><polygon points="720 432 648 432 648 360 720 432" fill="#131214"/><polygon points="576 216 576 144 648 144 576 216" fill="#131214"/><polygon points="720 216 648 216 648 144 720 216" fill="#131214"/><polygon points="576 288 576 216 648 216 576 288" fill="#131214"/><polygon points="720 288 648 288 648 216 720 288" fill="#131214"/><polygon points="576 72 576 0 648 0 576 72" fill="#131214"/><polygon points="720 72 648 72 648 0 720 72" fill="#131214"/><polygon points="576 144 576 72 648 72 576 144" fill="#131214"/><polygon points="720 144 648 144 648 72 720 144" fill="#131214"/><polygon points="720 576 720 504 792 504 720 576" fill="#131214"/><polygon points="864 576 792 576 792 504 864 576" fill="#131214"/><polygon points="720 648 720 576 792 576 720 648" fill="#131214"/><polygon points="864 648 792 648 792 576 864 648" fill="#131214"/><polygon points="720 720 720 648 792 648 720 720" fill="#131214"/><polygon points="864 720 792 720 792 648 864 720" fill="#131214"/><polygon points="720 792 720 720 792 720 720 792" fill="#131214"/><polygon points="864 792 792 792 792 720 864 792" fill="#131214"/><polygon points="720 864 720 792 792 792 720 864" fill="#131214"/><polygon points="864 864 792 864 792 792 864 864" fill="#131214"/><polygon points="720 936 720 864 792 864 720 936" fill="#131214"/><polygon points="864 936 792 936 792 864 864 936" fill="#131214"/><polygon points="720 1008 720 936 792 936 720 1008" fill="#131214"/><polygon points="864 1008 792 1008 792 936 864 1008" fill="#131214"/><polygon points="720 1080 720 1008 792 1008 720 1080" fill="#131214"/><polygon points="864 1080 792 1080 792 1008 864 1080" fill="#131214"/><polygon points="720 432 720 360 792 360 720 432" fill="#131214"/><polygon points="864 432 792 432 792 360 864 432" fill="#131214"/><polygon points="720 504 720 432 792 432 720 504" fill="#131214"/><polygon points="864 504 792 504 792 432 864 504" fill="#131214"/><polygon points="720 288 720 216 792 216 720 288" fill="#131214"/><polygon points="864 288 792 288 792 216 864 288" fill="#131214"/><polygon points="720 360 720 288 792 288 720 360" fill="#131214"/><polygon points="864 360 792 360 792 288 864 360" fill="#131214"/><polygon points="720 144 720 72 792 72 720 144" fill="#131214"/><polygon points="864 144 792 144 792 72 864 144" fill="#131214"/><polygon points="720 216 720 144 792 144 720 216" fill="#131214"/><polygon points="864 216 792 216 792 144 864 216" fill="#131214"/><polygon points="864 504 864 432 936 432 864 504" fill="#131214"/><polygon points="1008 504 936 504 936 432 1008 504" fill="#131214"/><polygon points="864 576 864 504 936 504 864 576" fill="#131214"/><polygon points="1008 576 936 576 936 504 1008 576" fill="#131214"/><polygon points="864 648 864 576 936 576 864 648" fill="#131214"/><polygon points="1008 648 936 648 936 576 1008 648" fill="#131214"/><polygon points="864 720 864 648 936 648 864 720" fill="#131214"/><polygon points="1008 720 936 720 936 648 1008 720" fill="#131214"/><polygon points="864 792 864 720 936 720 864 792" fill="#131214"/><polygon points="1008 792 936 792 936 720 1008 792" fill="#131214"/><polygon points="864 864 864 792 936 792 864 864" fill="#131214"/><polygon points="1008 864 936 864 936 792 1008 864" fill="#131214"/><polygon points="864 936 864 864 936 864 864 936" fill="#131214"/><polygon points="1008 936 936 936 936 864 1008 936" fill="#131214"/><polygon points="864 1008 864 936 936 936 864 1008" fill="#131214"/><polygon points="1008 1008 936 1008 936 936 1008 1008" fill="#131214"/><polygon points="864 1080 864 1008 936 1008 864 1080" fill="#131214"/><polygon points="1008 1080 936 1080 936 1008 1008 1080" fill="#131214"/><polygon points="864 360 864 288 936 288 864 360" fill="#131214"/><polygon points="1008 360 936 360 936 288 1008 360" fill="#131214"/><polygon points="864 432 864 360 936 360 864 432" fill="#131214"/><polygon points="1008 432 936 432 936 360 1008 432" fill="#131214"/><polygon points="864 216 864 144 936 144 864 216" fill="#131214"/><polygon points="1008 216 936 216 936 144 1008 216" fill="#131214"/><polygon points="864 288 864 216 936 216 864 288" fill="#131214"/><polygon points="1008 288 936 288 936 216 1008 288" fill="#131214"/><polygon points="864 72 864 0 936 0 864 72" fill="#131214"/><polygon points="1008 72 936 72 936 0 1008 72" fill="#131214"/><polygon points="864 144 864 72 936 72 864 144" fill="#131214"/><polygon points="1008 144 936 144 936 72 1008 144" fill="#131214"/></svg>